<?xml version="1.0" ?><svg height="32" id="icon" viewBox="0 0 32 32" width="32" xmlns="http://www.w3.org/2000/svg"><defs><style>
      .cls-1 {
        fill: none;
      }
    </style></defs><rect height="2" width="6" x="8" y="14"/><rect height="2" width="12" x="8" y="6"/><rect height="2" width="12" x="8" y="10"/><rect height="2" width="6" x="8" y="24"/><path d="M27,25H21a3,3,0,0,0-3,3v2h2V28a1,1,0,0,1,1-1h6a1,1,0,0,1,1,1v2h2V28A3,3,0,0,0,27,25Z"/><path d="M24,24a4,4,0,1,0-4-4A4,4,0,0,0,24,24Zm0-6a2,2,0,1,1-2,2A2,2,0,0,1,24,18Z"/><path d="M14,30H6a2.0021,2.0021,0,0,1-2-2V4A2.0021,2.0021,0,0,1,6,2H22a2.0021,2.0021,0,0,1,2,2V14H22V4H6V28h8Z"/><rect class="cls-1" data-name="&lt;Transparent Rectangle&gt;" height="32" id="_Transparent_Rectangle_" width="32"/></svg>